<mxfile host="app.diagrams.net" modified="2023-03-14T16:56:56.627Z" agent="5.0 (Windows NT 10.0; Win64; x64) AppleWebKit/537.36 (KHTML, like Gecko) Chrome/109.0.0.0 Safari/537.36" etag="N4gv9ft2Q2ufw756jQsr" version="21.0.6" type="github">
  <diagram name="PÃ¡gina-1" id="qM4OqVSHpMiwkYs2nGsH">
    <mxGraphModel dx="1877" dy="581" grid="1" gridSize="10" guides="1" tooltips="1" connect="1" arrows="1" fold="1" page="1" pageScale="1" pageWidth="827" pageHeight="1169" math="0" shadow="0">
      <root>
        <mxCell id="0" />
        <mxCell id="1" parent="0" />
        <mxCell id="zWoiS3IFKv8DqLQWhOzp-7" style="edgeStyle=orthogonalEdgeStyle;rounded=0;orthogonalLoop=1;jettySize=auto;html=1;entryX=0.5;entryY=0;entryDx=0;entryDy=0;entryPerimeter=0;" edge="1" parent="1" source="2lVs8u2n1RN8bHbPqQJk-1" target="zWoiS3IFKv8DqLQWhOzp-2">
          <mxGeometry relative="1" as="geometry" />
        </mxCell>
        <mxCell id="2lVs8u2n1RN8bHbPqQJk-1" value="" style="rounded=1;whiteSpace=wrap;html=1;fillStyle=hatch;fillColor=#f8cecc;strokeColor=#b85450;" parent="1" vertex="1">
          <mxGeometry x="110" y="40" width="430" height="130" as="geometry" />
        </mxCell>
        <mxCell id="2lVs8u2n1RN8bHbPqQJk-2" value="" style="sketch=0;aspect=fixed;html=1;points=[];align=center;image;fontSize=12;image=img/lib/mscae/OpenShift.svg;" parent="1" vertex="1">
          <mxGeometry x="130" y="60" width="50" height="46" as="geometry" />
        </mxCell>
        <mxCell id="2lVs8u2n1RN8bHbPqQJk-3" value="MicroServicio&lt;br style=&quot;font-size: 9px;&quot;&gt;Alertas&lt;br style=&quot;font-size: 9px;&quot;&gt;WSCiberFraude301" style="rounded=1;whiteSpace=wrap;html=1;fillColor=#dae8fc;strokeColor=#6c8ebf;fontSize=9;" parent="1" vertex="1">
          <mxGeometry x="190" y="80" width="100" height="60" as="geometry" />
        </mxCell>
        <mxCell id="2lVs8u2n1RN8bHbPqQJk-4" value="MicroServicio&lt;br style=&quot;font-size: 9px;&quot;&gt;Alertas" style="rounded=1;whiteSpace=wrap;html=1;fillColor=#dae8fc;strokeColor=#6c8ebf;fontSize=9;" parent="1" vertex="1">
          <mxGeometry x="340" y="80" width="90" height="60" as="geometry" />
        </mxCell>
        <mxCell id="2lVs8u2n1RN8bHbPqQJk-5" value="Openshift" style="text;html=1;strokeColor=none;fillColor=none;align=center;verticalAlign=middle;whiteSpace=wrap;rounded=0;" parent="1" vertex="1">
          <mxGeometry x="130" width="60" height="30" as="geometry" />
        </mxCell>
        <mxCell id="zWoiS3IFKv8DqLQWhOzp-10" style="edgeStyle=orthogonalEdgeStyle;rounded=0;orthogonalLoop=1;jettySize=auto;html=1;" edge="1" parent="1" source="zWoiS3IFKv8DqLQWhOzp-2" target="zWoiS3IFKv8DqLQWhOzp-8">
          <mxGeometry relative="1" as="geometry" />
        </mxCell>
        <mxCell id="zWoiS3IFKv8DqLQWhOzp-2" value="" style="sketch=0;points=[[0,0,0],[0.25,0,0],[0.5,0,0],[0.75,0,0],[1,0,0],[0,1,0],[0.25,1,0],[0.5,1,0],[0.75,1,0],[1,1,0],[0,0.25,0],[0,0.5,0],[0,0.75,0],[1,0.25,0],[1,0.5,0],[1,0.75,0]];outlineConnect=0;fontColor=#232F3E;gradientColor=#F78E04;gradientDirection=north;fillColor=#D05C17;strokeColor=#ffffff;dashed=0;verticalLabelPosition=bottom;verticalAlign=top;align=center;html=1;fontSize=12;fontStyle=0;aspect=fixed;shape=mxgraph.aws4.resourceIcon;resIcon=mxgraph.aws4.lambda;" vertex="1" parent="1">
          <mxGeometry x="100" y="280" width="50" height="50" as="geometry" />
        </mxCell>
        <mxCell id="zWoiS3IFKv8DqLQWhOzp-5" value="Lambda" style="text;html=1;strokeColor=none;fillColor=none;align=center;verticalAlign=middle;whiteSpace=wrap;rounded=0;fontSize=10;" vertex="1" parent="1">
          <mxGeometry x="95" y="340" width="60" height="30" as="geometry" />
        </mxCell>
        <mxCell id="zWoiS3IFKv8DqLQWhOzp-8" value="" style="rounded=1;whiteSpace=wrap;html=1;fillColor=#dae8fc;strokeColor=#6c8ebf;fillStyle=hatch;" vertex="1" parent="1">
          <mxGeometry x="-240" y="40" width="120" height="290" as="geometry" />
        </mxCell>
        <mxCell id="zWoiS3IFKv8DqLQWhOzp-9" value="Spartan&amp;nbsp;" style="text;html=1;align=center;verticalAlign=middle;resizable=0;points=[];autosize=1;strokeColor=none;fillColor=none;" vertex="1" parent="1">
          <mxGeometry x="-215" y="5" width="70" height="30" as="geometry" />
        </mxCell>
        <mxCell id="zWoiS3IFKv8DqLQWhOzp-18" style="edgeStyle=orthogonalEdgeStyle;rounded=0;orthogonalLoop=1;jettySize=auto;html=1;entryX=0.5;entryY=0;entryDx=0;entryDy=0;" edge="1" parent="1" source="zWoiS3IFKv8DqLQWhOzp-12" target="zWoiS3IFKv8DqLQWhOzp-13">
          <mxGeometry relative="1" as="geometry" />
        </mxCell>
        <mxCell id="zWoiS3IFKv8DqLQWhOzp-12" value="UI" style="rounded=1;whiteSpace=wrap;html=1;fillColor=#fff2cc;strokeColor=#d6b656;" vertex="1" parent="1">
          <mxGeometry x="-215" y="76" width="70" height="30" as="geometry" />
        </mxCell>
        <mxCell id="zWoiS3IFKv8DqLQWhOzp-17" style="edgeStyle=orthogonalEdgeStyle;rounded=0;orthogonalLoop=1;jettySize=auto;html=1;entryX=0.5;entryY=0;entryDx=0;entryDy=0;" edge="1" parent="1" source="zWoiS3IFKv8DqLQWhOzp-13" target="zWoiS3IFKv8DqLQWhOzp-14">
          <mxGeometry relative="1" as="geometry" />
        </mxCell>
        <mxCell id="zWoiS3IFKv8DqLQWhOzp-13" value="Logix" style="rounded=1;whiteSpace=wrap;html=1;fillColor=#f8cecc;strokeColor=#b85450;" vertex="1" parent="1">
          <mxGeometry x="-215" y="140" width="70" height="30" as="geometry" />
        </mxCell>
        <mxCell id="zWoiS3IFKv8DqLQWhOzp-16" style="edgeStyle=orthogonalEdgeStyle;rounded=0;orthogonalLoop=1;jettySize=auto;html=1;entryX=0.291;entryY=-0.081;entryDx=0;entryDy=0;entryPerimeter=0;" edge="1" parent="1" source="zWoiS3IFKv8DqLQWhOzp-14" target="zWoiS3IFKv8DqLQWhOzp-15">
          <mxGeometry relative="1" as="geometry" />
        </mxCell>
        <mxCell id="zWoiS3IFKv8DqLQWhOzp-14" value="Acceso" style="rounded=1;whiteSpace=wrap;html=1;fillColor=#dae8fc;strokeColor=#6c8ebf;" vertex="1" parent="1">
          <mxGeometry x="-215" y="200" width="70" height="30" as="geometry" />
        </mxCell>
        <mxCell id="zWoiS3IFKv8DqLQWhOzp-15" value="" style="aspect=fixed;html=1;points=[];align=center;image;fontSize=12;image=img/lib/azure2/databases/SQL_Server_Registries.svg;" vertex="1" parent="1">
          <mxGeometry x="-200" y="370" width="68" height="62" as="geometry" />
        </mxCell>
      </root>
    </mxGraphModel>
  </diagram>
</mxfile>
